<?xml version="1.0" encoding="UTF-8" standalone="no"?>
<!DOCTYPE svg PUBLIC "-//W3C//DTD SVG 1.1//EN" "http://www.w3.org/Graphics/SVG/1.1/DTD/svg11.dtd">
<!-- Created with Vectornator (http://vectornator.io/) -->
<svg height="100%" stroke-miterlimit="10" style="fill-rule:nonzero;clip-rule:evenodd;stroke-linecap:round;stroke-linejoin:round;" version="1.1" viewBox="0 0 2268 2268" width="100%" xml:space="preserve" xmlns="http://www.w3.org/2000/svg" xmlns:vectornator="http://vectornator.io" xmlns:xlink="http://www.w3.org/1999/xlink">
<defs>
<filter color-interpolation-filters="sRGB" filterUnits="userSpaceOnUse" height="1825.68" id="Filter" width="1843.97" x="215.942" y="243.687">
<feDropShadow dx="-3.67321e-05" dy="10" flood-color="#000000" flood-opacity="0.333" in="SourceGraphic" result="Shadow" stdDeviation="5"/>
</filter>
</defs>
<g id="Layer-3" vectornator:layerName="Layer 3">
<path d="M228.442 656.187C228.442 429.75 412.005 246.187 638.442 246.187L1637.41 246.187C1863.85 246.187 2047.41 429.75 2047.41 656.187L2047.41 1636.86C2047.41 1863.3 1863.85 2046.86 1637.41 2046.86L638.442 2046.86C412.005 2046.86 228.442 1863.3 228.442 1636.86L228.442 656.187Z" fill="#081e91" fill-rule="nonzero" filter="url(#Filter)" stroke="none" vectornator:layerName="Rectangle 1" vectornator:shadowAngle="1.5708" vectornator:shadowColor="#000000" vectornator:shadowOffset="10" vectornator:shadowOpacity="0.333" vectornator:shadowRadius="10"/>
</g>
<g id="Layer-1" vectornator:layerName="Layer 1">
<g opacity="1" vectornator:layerName="Group 1">
<path d="M1134 821.34L1199.04 886.377L1134 951.414L1068.96 886.377L1134 821.34Z" fill="#ffffff" fill-rule="nonzero" opacity="1" stroke="#263c53" stroke-linecap="butt" stroke-linejoin="round" stroke-width="12" vectornator:layerName="Rectangle 9"/>
<path d="M1068.96 756.303L1134 821.34L1068.96 886.377L1003.93 821.34L1068.96 756.303Z" fill="#ffffff" fill-rule="nonzero" opacity="1" stroke="#263c53" stroke-linecap="butt" stroke-linejoin="round" stroke-width="12" vectornator:layerName="Rectangle 11"/>
<path d="M1199.04 756.303L1264.07 821.34L1199.04 886.377L1134 821.34L1199.04 756.303Z" fill="#ffffff" fill-rule="nonzero" opacity="1" stroke="#263c53" stroke-linecap="butt" stroke-linejoin="round" stroke-width="12" vectornator:layerName="Rectangle 10"/>
<path d="M1264.07 691.266L1329.11 756.303L1264.07 821.34L1199.04 756.303L1264.07 691.266Z" fill="#ffffff" fill-rule="nonzero" opacity="1" stroke="#263c53" stroke-linecap="butt" stroke-linejoin="round" stroke-width="12" vectornator:layerName="Rectangle 12"/>
<path d="M1329.11 756.303L1394.15 821.34L1329.11 886.377L1264.07 821.34L1329.11 756.303Z" fill="#ffffff" fill-rule="nonzero" opacity="1" stroke="#263c53" stroke-linecap="butt" stroke-linejoin="round" stroke-width="12" vectornator:layerName="Rectangle 13"/>
<path d="M1264.07 821.34L1329.11 886.377L1264.07 951.414L1199.04 886.377L1264.07 821.34Z" fill="#ffffff" fill-rule="nonzero" opacity="1" stroke="#263c53" stroke-linecap="butt" stroke-linejoin="round" stroke-width="12" vectornator:layerName="Rectangle 14"/>
<path d="M1199.04 886.377L1264.07 951.414L1199.04 1016.45L1134 951.414L1199.04 886.377Z" fill="#ffffff" fill-rule="nonzero" opacity="1" stroke="#263c53" stroke-linecap="butt" stroke-linejoin="round" stroke-width="12" vectornator:layerName="Rectangle 15"/>
<path d="M1134 951.414L1199.04 1016.45L1134 1081.49L1068.96 1016.45L1134 951.414Z" fill="#ffffff" fill-rule="nonzero" opacity="1" stroke="#263c53" stroke-linecap="butt" stroke-linejoin="round" stroke-width="12" vectornator:layerName="Rectangle 16"/>
<path d="M1068.96 886.377L1134 951.414L1068.96 1016.45L1003.93 951.414L1068.96 886.377Z" fill="#ffffff" fill-rule="nonzero" opacity="1" stroke="#263c53" stroke-linecap="butt" stroke-linejoin="round" stroke-width="12" vectornator:layerName="Rectangle 17"/>
<path d="M1003.93 821.34L1068.96 886.377L1003.93 951.414L938.889 886.377L1003.93 821.34Z" fill="#ffffff" fill-rule="nonzero" opacity="1" stroke="#263c53" stroke-linecap="butt" stroke-linejoin="round" stroke-width="12" vectornator:layerName="Rectangle 18"/>
<path d="M938.889 756.303L1003.93 821.34L938.889 886.377L873.852 821.34L938.889 756.303Z" fill="#ffffff" fill-rule="nonzero" opacity="1" stroke="#263c53" stroke-linecap="butt" stroke-linejoin="round" stroke-width="12" vectornator:layerName="Rectangle 19"/>
<path d="M1003.93 691.266L1068.96 756.303L1003.93 821.34L938.889 756.303L1003.93 691.266Z" fill="#ffffff" fill-rule="nonzero" opacity="1" stroke="#263c53" stroke-linecap="butt" stroke-linejoin="round" stroke-width="12" vectornator:layerName="Rectangle 20"/>
<path d="M938.889 626.229L1003.93 691.266L938.889 756.303L873.852 691.266L938.889 626.229Z" fill="#ffffff" fill-rule="nonzero" opacity="1" stroke="#263c53" stroke-linecap="butt" stroke-linejoin="round" stroke-width="12" vectornator:layerName="Rectangle 21"/>
<path d="M873.852 691.266L938.889 756.303L873.852 821.34L808.816 756.303L873.852 691.266Z" fill="#ffffff" fill-rule="nonzero" opacity="1" stroke="#263c53" stroke-linecap="butt" stroke-linejoin="round" stroke-width="12" vectornator:layerName="Rectangle 22"/>
<path d="M808.816 756.303L873.852 821.34L808.816 886.377L743.779 821.34L808.816 756.303Z" fill="#ffffff" fill-rule="nonzero" opacity="1" stroke="#263c53" stroke-linecap="butt" stroke-linejoin="round" stroke-width="12" vectornator:layerName="Rectangle 23"/>
<path d="M873.852 821.34L938.889 886.377L873.852 951.414L808.816 886.377L873.852 821.34Z" fill="#ffffff" fill-rule="nonzero" opacity="1" stroke="#263c53" stroke-linecap="butt" stroke-linejoin="round" stroke-width="12" vectornator:layerName="Rectangle 24"/>
<path d="M938.889 886.377L1003.93 951.414L938.889 1016.45L873.852 951.414L938.889 886.377Z" fill="#ffffff" fill-rule="nonzero" opacity="1" stroke="#263c53" stroke-linecap="butt" stroke-linejoin="round" stroke-width="12" vectornator:layerName="Rectangle 25"/>
<path d="M1003.93 951.414L1068.96 1016.45L1003.93 1081.49L938.889 1016.45L1003.93 951.414Z" fill="#ffffff" fill-rule="nonzero" opacity="1" stroke="#263c53" stroke-linecap="butt" stroke-linejoin="round" stroke-width="12" vectornator:layerName="Rectangle 26"/>
<path d="M1068.96 1016.45L1134 1081.49L1068.96 1146.52L1003.93 1081.49L1068.96 1016.45Z" fill="#ffffff" fill-rule="nonzero" opacity="1" stroke="#263c53" stroke-linecap="butt" stroke-linejoin="round" stroke-width="12" vectornator:layerName="Rectangle 27"/>
<path d="M1134 1081.49L1199.04 1146.52L1134 1211.56L1068.96 1146.52L1134 1081.49Z" fill="#ffffff" fill-rule="nonzero" opacity="1" stroke="#263c53" stroke-linecap="butt" stroke-linejoin="round" stroke-width="12" vectornator:layerName="Rectangle 28"/>
<path d="M1003.93 1081.49L1068.96 1146.52L1003.93 1211.56L938.889 1146.52L1003.93 1081.49Z" fill="#ffffff" fill-rule="nonzero" opacity="1" stroke="#263c53" stroke-linecap="butt" stroke-linejoin="round" stroke-width="12" vectornator:layerName="Rectangle 36"/>
<path d="M1068.96 1146.52L1134 1211.56L1068.96 1276.6L1003.93 1211.56L1068.96 1146.52Z" fill="#ffffff" fill-rule="nonzero" opacity="1" stroke="#263c53" stroke-linecap="butt" stroke-linejoin="round" stroke-width="12" vectornator:layerName="Rectangle 37"/>
<path d="M1199.04 1146.52L1264.07 1211.56L1199.04 1276.6L1134 1211.56L1199.04 1146.52Z" fill="#ffffff" fill-rule="nonzero" opacity="1" stroke="#263c53" stroke-linecap="butt" stroke-linejoin="round" stroke-width="12" vectornator:layerName="Rectangle 38"/>
<path d="M1199.04 1146.52L1264.07 1211.56L1199.04 1276.6L1134 1211.56L1199.04 1146.52Z" fill="#ffffff" fill-rule="nonzero" opacity="1" stroke="#263c53" stroke-linecap="butt" stroke-linejoin="round" stroke-width="12" vectornator:layerName="Rectangle 39"/>
<path d="M1264.07 1081.49L1329.11 1146.52L1264.07 1211.56L1199.04 1146.52L1264.07 1081.49Z" fill="#ffffff" fill-rule="nonzero" opacity="1" stroke="#263c53" stroke-linecap="butt" stroke-linejoin="round" stroke-width="12" vectornator:layerName="Rectangle 40"/>
<path d="M1199.04 1016.45L1264.07 1081.49L1199.04 1146.52L1134 1081.49L1199.04 1016.45Z" fill="#ffffff" fill-rule="nonzero" opacity="1" stroke="#263c53" stroke-linecap="butt" stroke-linejoin="round" stroke-width="12" vectornator:layerName="Rectangle 29"/>
<path d="M1264.07 951.414L1329.11 1016.45L1264.07 1081.49L1199.04 1016.45L1264.07 951.414Z" fill="#ffffff" fill-rule="nonzero" opacity="1" stroke="#263c53" stroke-linecap="butt" stroke-linejoin="round" stroke-width="12" vectornator:layerName="Rectangle 30"/>
<path d="M1329.11 886.377L1394.15 951.414L1329.11 1016.45L1264.07 951.414L1329.11 886.377Z" fill="#ffffff" fill-rule="nonzero" opacity="1" stroke="#263c53" stroke-linecap="butt" stroke-linejoin="round" stroke-width="12" vectornator:layerName="Rectangle 31"/>
<path d="M1394.15 821.34L1459.18 886.377L1394.15 951.414L1329.11 886.377L1394.15 821.34Z" fill="#ffffff" fill-rule="nonzero" opacity="1" stroke="#263c53" stroke-linecap="butt" stroke-linejoin="round" stroke-width="12" vectornator:layerName="Rectangle 32"/>
<path d="M1459.18 756.303L1524.22 821.34L1459.18 886.377L1394.15 821.34L1459.18 756.303Z" fill="#ffffff" fill-rule="nonzero" opacity="1" stroke="#263c53" stroke-linecap="butt" stroke-linejoin="round" stroke-width="12" vectornator:layerName="Rectangle 33"/>
<path d="M1394.15 691.266L1459.18 756.303L1394.15 821.34L1329.11 756.303L1394.15 691.266Z" fill="#ffffff" fill-rule="nonzero" opacity="1" stroke="#263c53" stroke-linecap="butt" stroke-linejoin="round" stroke-width="12" vectornator:layerName="Rectangle 34"/>
<path d="M1329.11 626.229L1394.15 691.266L1329.11 756.303L1264.07 691.266L1329.11 626.229Z" fill="#ffffff" fill-rule="nonzero" opacity="1" stroke="#263c53" stroke-linecap="butt" stroke-linejoin="round" stroke-width="12" vectornator:layerName="Rectangle 35"/>
<path d="M1134 1211.56L1199.04 1276.6L1134 1341.63L1068.96 1276.6L1134 1211.56Z" fill="#ffffff" fill-rule="nonzero" opacity="1" stroke="#263c53" stroke-linecap="butt" stroke-linejoin="round" stroke-width="12" vectornator:layerName="Rectangle 41"/>
<path d="M938.889 1016.45L1003.93 1081.49L938.889 1146.52L873.852 1081.49L938.889 1016.45Z" fill="#ffffff" fill-rule="nonzero" opacity="1" stroke="#263c53" stroke-linecap="butt" stroke-linejoin="round" stroke-width="12" vectornator:layerName="Rectangle 42"/>
<path d="M873.852 951.414L938.889 1016.45L873.852 1081.49L808.816 1016.45L873.852 951.414Z" fill="#ffffff" fill-rule="nonzero" opacity="1" stroke="#263c53" stroke-linecap="butt" stroke-linejoin="round" stroke-width="12" vectornator:layerName="Rectangle 43"/>
<path d="M808.816 886.377L873.852 951.414L808.816 1016.45L743.779 951.414L808.816 886.377Z" fill="#ffffff" fill-rule="nonzero" opacity="1" stroke="#263c53" stroke-linecap="butt" stroke-linejoin="round" stroke-width="12" vectornator:layerName="Rectangle 44"/>
<path d="M743.779 821.34L808.816 886.377L743.779 951.414L678.742 886.377L743.779 821.34Z" fill="#ffffff" fill-rule="nonzero" opacity="1" stroke="#263c53" stroke-linecap="butt" stroke-linejoin="round" stroke-width="12" vectornator:layerName="Rectangle 45"/>
<path d="M1329.11 1016.45L1394.15 1081.49L1329.11 1146.52L1264.07 1081.49L1329.11 1016.45Z" fill="#ffffff" fill-rule="nonzero" opacity="1" stroke="#263c53" stroke-linecap="butt" stroke-linejoin="round" stroke-width="12" vectornator:layerName="Rectangle 46"/>
<path d="M1394.15 951.414L1459.18 1016.45L1394.15 1081.49L1329.11 1016.45L1394.15 951.414Z" fill="#ffffff" fill-rule="nonzero" opacity="1" stroke="#263c53" stroke-linecap="butt" stroke-linejoin="round" stroke-width="12" vectornator:layerName="Rectangle 47"/>
<path d="M1459.18 886.377L1524.22 951.414L1459.18 1016.45L1394.15 951.414L1459.18 886.377Z" fill="#ffffff" fill-rule="nonzero" opacity="1" stroke="#263c53" stroke-linecap="butt" stroke-linejoin="round" stroke-width="12" vectornator:layerName="Rectangle 48"/>
<path d="M1524.22 821.34L1589.26 886.377L1524.22 951.414L1459.18 886.377L1524.22 821.34Z" fill="#ffffff" fill-rule="nonzero" opacity="1" stroke="#263c53" stroke-linecap="butt" stroke-linejoin="round" stroke-width="12" vectornator:layerName="Rectangle 49"/>
<path d="M1459.18 626.229L1524.22 691.266L1459.18 756.303L1394.15 691.266L1459.18 626.229Z" fill="#ffffff" fill-rule="nonzero" opacity="1" stroke="#263c53" stroke-linecap="butt" stroke-linejoin="round" stroke-width="12" vectornator:layerName="Rectangle 50"/>
<path d="M1524.22 691.266L1589.26 756.303L1524.22 821.34L1459.18 756.303L1524.22 691.266Z" fill="#ffffff" fill-rule="nonzero" opacity="1" stroke="#263c53" stroke-linecap="butt" stroke-linejoin="round" stroke-width="12" vectornator:layerName="Rectangle 51"/>
<path d="M808.816 626.229L873.852 691.266L808.816 756.303L743.779 691.266L808.816 626.229Z" fill="#ffffff" fill-rule="nonzero" opacity="1" stroke="#263c53" stroke-linecap="butt" stroke-linejoin="round" stroke-width="12" vectornator:layerName="Rectangle 52"/>
<path d="M873.852 561.192L938.889 626.229L873.852 691.266L808.816 626.229L873.852 561.192Z" fill="#ffffff" fill-rule="nonzero" opacity="1" stroke="#263c53" stroke-linecap="butt" stroke-linejoin="round" stroke-width="12" vectornator:layerName="Rectangle 54"/>
<path d="M678.742 756.303L743.779 821.34L678.742 886.377L613.705 821.34L678.742 756.303Z" fill="#ffffff" fill-rule="nonzero" opacity="1" stroke="#263c53" stroke-linecap="butt" stroke-linejoin="round" stroke-width="12" vectornator:layerName="Rectangle 55"/>
<path d="M613.705 821.34L678.742 886.377L613.705 951.414L548.668 886.377L613.705 821.34Z" fill="#ffffff" fill-rule="nonzero" opacity="1" stroke="#263c53" stroke-linecap="butt" stroke-linejoin="round" stroke-width="12" vectornator:layerName="Rectangle 56"/>
<path d="M678.742 886.377L743.779 951.414L678.742 1016.45L613.705 951.414L678.742 886.377Z" fill="#ffffff" fill-rule="nonzero" opacity="1" stroke="#263c53" stroke-linecap="butt" stroke-linejoin="round" stroke-width="12" vectornator:layerName="Rectangle 57"/>
<path d="M743.779 951.414L808.816 1016.45L743.779 1081.49L678.742 1016.45L743.779 951.414Z" fill="#ffffff" fill-rule="nonzero" opacity="1" stroke="#263c53" stroke-linecap="butt" stroke-linejoin="round" stroke-width="12" vectornator:layerName="Rectangle 58"/>
<path d="M808.816 1016.45L873.852 1081.49L808.816 1146.52L743.779 1081.49L808.816 1016.45Z" fill="#ffffff" fill-rule="nonzero" opacity="1" stroke="#263c53" stroke-linecap="butt" stroke-linejoin="round" stroke-width="12" vectornator:layerName="Rectangle 59"/>
<path d="M873.852 1081.49L938.889 1146.52L873.852 1211.56L808.816 1146.52L873.852 1081.49Z" fill="#ffffff" fill-rule="nonzero" opacity="1" stroke="#263c53" stroke-linecap="butt" stroke-linejoin="round" stroke-width="12" vectornator:layerName="Rectangle 60"/>
<path d="M938.889 1146.52L1003.93 1211.56L938.889 1276.6L873.852 1211.56L938.889 1146.52Z" fill="#ffffff" fill-rule="nonzero" opacity="1" stroke="#263c53" stroke-linecap="butt" stroke-linejoin="round" stroke-width="12" vectornator:layerName="Rectangle 61"/>
<path d="M1003.93 1211.56L1068.96 1276.6L1003.93 1341.63L938.889 1276.6L1003.93 1211.56Z" fill="#ffffff" fill-rule="nonzero" opacity="1" stroke="#263c53" stroke-linecap="butt" stroke-linejoin="round" stroke-width="12" vectornator:layerName="Rectangle 62"/>
<path d="M1068.96 1276.6L1134 1341.63L1068.96 1406.67L1003.93 1341.63L1068.96 1276.6Z" fill="#ffffff" fill-rule="nonzero" opacity="1" stroke="#263c53" stroke-linecap="butt" stroke-linejoin="round" stroke-width="12" vectornator:layerName="Rectangle 63"/>
<path d="M1134 1341.63L1199.04 1406.67L1134 1471.71L1068.96 1406.67L1134 1341.63Z" fill="#ffffff" fill-rule="nonzero" opacity="1" stroke="#263c53" stroke-linecap="butt" stroke-linejoin="round" stroke-width="12" vectornator:layerName="Rectangle 64"/>
<path d="M1199.04 1276.6L1264.07 1341.63L1199.04 1406.67L1134 1341.63L1199.04 1276.6Z" fill="#ffffff" fill-rule="nonzero" opacity="1" stroke="#263c53" stroke-linecap="butt" stroke-linejoin="round" stroke-width="12" vectornator:layerName="Rectangle 65"/>
<path d="M1264.07 1211.56L1329.11 1276.6L1264.07 1341.63L1199.04 1276.6L1264.07 1211.56Z" fill="#ffffff" fill-rule="nonzero" opacity="1" stroke="#263c53" stroke-linecap="butt" stroke-linejoin="round" stroke-width="12" vectornator:layerName="Rectangle 66"/>
<path d="M1329.11 1146.52L1394.15 1211.56L1329.11 1276.6L1264.07 1211.56L1329.11 1146.52Z" fill="#ffffff" fill-rule="nonzero" opacity="1" stroke="#263c53" stroke-linecap="butt" stroke-linejoin="round" stroke-width="12" vectornator:layerName="Rectangle 67"/>
<path d="M1394.15 1081.49L1459.18 1146.52L1394.15 1211.56L1329.11 1146.52L1394.15 1081.49Z" fill="#ffffff" fill-rule="nonzero" opacity="1" stroke="#263c53" stroke-linecap="butt" stroke-linejoin="round" stroke-width="12" vectornator:layerName="Rectangle 68"/>
<path d="M1459.18 1016.45L1524.22 1081.49L1459.18 1146.52L1394.15 1081.49L1459.18 1016.45Z" fill="#ffffff" fill-rule="nonzero" opacity="1" stroke="#263c53" stroke-linecap="butt" stroke-linejoin="round" stroke-width="12" vectornator:layerName="Rectangle 69"/>
<path d="M1524.22 951.414L1589.26 1016.45L1524.22 1081.49L1459.18 1016.45L1524.22 951.414Z" fill="#ffffff" fill-rule="nonzero" opacity="1" stroke="#263c53" stroke-linecap="butt" stroke-linejoin="round" stroke-width="12" vectornator:layerName="Rectangle 70"/>
<path d="M1589.26 886.377L1654.3 951.414L1589.26 1016.45L1524.22 951.414L1589.26 886.377Z" fill="#ffffff" fill-rule="nonzero" opacity="1" stroke="#263c53" stroke-linecap="butt" stroke-linejoin="round" stroke-width="12" vectornator:layerName="Rectangle 71"/>
<path d="M1654.3 821.34L1719.33 886.377L1654.3 951.414L1589.26 886.377L1654.3 821.34Z" fill="#ffffff" fill-rule="nonzero" opacity="1" stroke="#263c53" stroke-linecap="butt" stroke-linejoin="round" stroke-width="12" vectornator:layerName="Rectangle 72"/>
<path d="M1589.26 756.303L1654.3 821.34L1589.26 886.377L1524.22 821.34L1589.26 756.303Z" fill="#ffffff" fill-rule="nonzero" opacity="1" stroke="#263c53" stroke-linecap="butt" stroke-linejoin="round" stroke-width="12" vectornator:layerName="Rectangle 73"/>
<path d="M1394.15 561.192L1459.18 626.229L1394.15 691.266L1329.11 626.229L1394.15 561.192Z" fill="#ffffff" fill-rule="nonzero" opacity="1" stroke="#263c53" stroke-linecap="butt" stroke-linejoin="round" stroke-width="12" vectornator:layerName="Rectangle 74"/>
<path d="M1524.22 561.192L1589.26 626.229L1524.22 691.266L1459.18 626.229L1524.22 561.192Z" fill="#ffffff" fill-rule="nonzero" opacity="1" stroke="#263c53" stroke-linecap="butt" stroke-linejoin="round" stroke-width="12" vectornator:layerName="Rectangle 75"/>
<path d="M1589.26 626.229L1654.3 691.266L1589.26 756.303L1524.22 691.266L1589.26 626.229Z" fill="#ffffff" fill-rule="nonzero" opacity="1" stroke="#263c53" stroke-linecap="butt" stroke-linejoin="round" stroke-width="12" vectornator:layerName="Rectangle 76"/>
<path d="M1654.3 691.266L1719.33 756.303L1654.3 821.34L1589.26 756.303L1654.3 691.266Z" fill="#ffffff" fill-rule="nonzero" opacity="1" stroke="#263c53" stroke-linecap="butt" stroke-linejoin="round" stroke-width="12" vectornator:layerName="Rectangle 77"/>
<path d="M1719.33 756.303L1784.37 821.34L1719.33 886.377L1654.3 821.34L1719.33 756.303Z" fill="#ffffff" fill-rule="nonzero" opacity="1" stroke="#263c53" stroke-linecap="butt" stroke-linejoin="round" stroke-width="12" vectornator:layerName="Rectangle 81"/>
<path d="M548.668 756.303L613.705 821.34L548.668 886.377L483.631 821.34L548.668 756.303Z" fill="#ffffff" fill-rule="nonzero" opacity="1" stroke="#263c53" stroke-linecap="butt" stroke-linejoin="round" stroke-width="12" vectornator:layerName="Rectangle 84"/>
<path d="M548.668 886.377L613.705 951.414L548.668 1016.45L483.631 951.414L548.668 886.377Z" fill="#ffffff" fill-rule="nonzero" opacity="1" stroke="#263c53" stroke-linecap="butt" stroke-linejoin="round" stroke-width="12" vectornator:layerName="Rectangle 85"/>
<path d="M678.742 1016.45L743.779 1081.49L678.742 1146.52L613.705 1081.49L678.742 1016.45Z" fill="#ffffff" fill-rule="nonzero" opacity="1" stroke="#263c53" stroke-linecap="butt" stroke-linejoin="round" stroke-width="12" vectornator:layerName="Rectangle 86"/>
<path d="M613.705 951.414L678.742 1016.45L613.705 1081.49L548.668 1016.45L613.705 951.414Z" fill="#ffffff" fill-rule="nonzero" opacity="1" stroke="#263c53" stroke-linecap="butt" stroke-linejoin="round" stroke-width="12" vectornator:layerName="Rectangle 89"/>
<path d="M548.668 1016.45L613.705 1081.49L548.668 1146.52L483.631 1081.49L548.668 1016.45Z" fill="#ffffff" fill-rule="nonzero" opacity="1" stroke="#263c53" stroke-linecap="butt" stroke-linejoin="round" stroke-width="12" vectornator:layerName="Rectangle 106"/>
<path d="M613.705 1081.49L678.742 1146.52L613.705 1211.56L548.668 1146.52L613.705 1081.49Z" fill="#ffffff" fill-rule="nonzero" opacity="1" stroke="#263c53" stroke-linecap="butt" stroke-linejoin="round" stroke-width="12" vectornator:layerName="Rectangle 107"/>
<path d="M678.742 1146.52L743.779 1211.56L678.742 1276.6L613.705 1211.56L678.742 1146.52Z" fill="#ffffff" fill-rule="nonzero" opacity="1" stroke="#263c53" stroke-linecap="butt" stroke-linejoin="round" stroke-width="12" vectornator:layerName="Rectangle 108"/>
<path d="M743.779 1211.56L808.816 1276.6L743.779 1341.63L678.742 1276.6L743.779 1211.56Z" fill="#ffffff" fill-rule="nonzero" opacity="1" stroke="#263c53" stroke-linecap="butt" stroke-linejoin="round" stroke-width="12" vectornator:layerName="Rectangle 109"/>
<path d="M808.816 1276.6L873.852 1341.63L808.816 1406.67L743.779 1341.63L808.816 1276.6Z" fill="#ffffff" fill-rule="nonzero" opacity="1" stroke="#263c53" stroke-linecap="butt" stroke-linejoin="round" stroke-width="12" vectornator:layerName="Rectangle 110"/>
<path d="M873.852 1341.63L938.889 1406.67L873.852 1471.71L808.816 1406.67L873.852 1341.63Z" fill="#ffffff" fill-rule="nonzero" opacity="1" stroke="#263c53" stroke-linecap="butt" stroke-linejoin="round" stroke-width="12" vectornator:layerName="Rectangle 111"/>
<path d="M938.889 1406.67L1003.93 1471.71L938.889 1536.75L873.852 1471.71L938.889 1406.67Z" fill="#ffffff" fill-rule="nonzero" opacity="1" stroke="#263c53" stroke-linecap="butt" stroke-linejoin="round" stroke-width="12" vectornator:layerName="Rectangle 112"/>
<path d="M1003.93 1471.71L1068.96 1536.75L1003.93 1601.78L938.889 1536.75L1003.93 1471.71Z" fill="#ffffff" fill-rule="nonzero" opacity="1" stroke="#263c53" stroke-linecap="butt" stroke-linejoin="round" stroke-width="12" vectornator:layerName="Rectangle 113"/>
<path d="M1068.96 1536.75L1134 1601.78L1068.96 1666.82L1003.93 1601.78L1068.96 1536.75Z" fill="#ffffff" fill-rule="nonzero" opacity="1" stroke="#263c53" stroke-linecap="butt" stroke-linejoin="round" stroke-width="12" vectornator:layerName="Rectangle 114"/>
<path d="M1134 1601.78L1199.04 1666.82L1134 1731.86L1068.96 1666.82L1134 1601.78Z" fill="#ffffff" fill-rule="nonzero" opacity="1" stroke="#263c53" stroke-linecap="butt" stroke-linejoin="round" stroke-width="12" vectornator:layerName="Rectangle 115"/>
<path d="M1199.04 1536.75L1264.07 1601.78L1199.04 1666.82L1134 1601.78L1199.04 1536.75Z" fill="#ffffff" fill-rule="nonzero" opacity="1" stroke="#263c53" stroke-linecap="butt" stroke-linejoin="round" stroke-width="12" vectornator:layerName="Rectangle 116"/>
<path d="M1264.07 1471.71L1329.11 1536.75L1264.07 1601.78L1199.04 1536.75L1264.07 1471.71Z" fill="#ffffff" fill-rule="nonzero" opacity="1" stroke="#263c53" stroke-linecap="butt" stroke-linejoin="round" stroke-width="12" vectornator:layerName="Rectangle 117"/>
<path d="M1329.11 1406.67L1394.15 1471.71L1329.11 1536.75L1264.07 1471.71L1329.11 1406.67Z" fill="#ffffff" fill-rule="nonzero" opacity="1" stroke="#263c53" stroke-linecap="butt" stroke-linejoin="round" stroke-width="12" vectornator:layerName="Rectangle 118"/>
<path d="M1394.15 1341.63L1459.18 1406.67L1394.15 1471.71L1329.11 1406.67L1394.15 1341.63Z" fill="#ffffff" fill-rule="nonzero" opacity="1" stroke="#263c53" stroke-linecap="butt" stroke-linejoin="round" stroke-width="12" vectornator:layerName="Rectangle 119"/>
<path d="M1459.18 1276.6L1524.22 1341.63L1459.18 1406.67L1394.15 1341.63L1459.18 1276.6Z" fill="#ffffff" fill-rule="nonzero" opacity="1" stroke="#263c53" stroke-linecap="butt" stroke-linejoin="round" stroke-width="12" vectornator:layerName="Rectangle 120"/>
<path d="M1524.22 1211.56L1589.26 1276.6L1524.22 1341.63L1459.18 1276.6L1524.22 1211.56Z" fill="#ffffff" fill-rule="nonzero" opacity="1" stroke="#263c53" stroke-linecap="butt" stroke-linejoin="round" stroke-width="12" vectornator:layerName="Rectangle 121"/>
<path d="M1589.26 1146.52L1654.3 1211.56L1589.26 1276.6L1524.22 1211.56L1589.26 1146.52Z" fill="#ffffff" fill-rule="nonzero" opacity="1" stroke="#263c53" stroke-linecap="butt" stroke-linejoin="round" stroke-width="12" vectornator:layerName="Rectangle 122"/>
<path d="M1654.3 1081.49L1719.33 1146.52L1654.3 1211.56L1589.26 1146.52L1654.3 1081.49Z" fill="#ffffff" fill-rule="nonzero" opacity="1" stroke="#263c53" stroke-linecap="butt" stroke-linejoin="round" stroke-width="12" vectornator:layerName="Rectangle 123"/>
<path d="M1719.33 1016.45L1784.37 1081.49L1719.33 1146.52L1654.3 1081.49L1719.33 1016.45Z" fill="#ffffff" fill-rule="nonzero" opacity="1" stroke="#263c53" stroke-linecap="butt" stroke-linejoin="round" stroke-width="12" vectornator:layerName="Rectangle 124"/>
<path d="M808.816 1146.52L873.852 1211.56L808.816 1276.6L743.779 1211.56L808.816 1146.52Z" fill="#ffffff" fill-rule="nonzero" opacity="1" stroke="#263c53" stroke-linecap="butt" stroke-linejoin="round" stroke-width="12" vectornator:layerName="Rectangle 87"/>
<path d="M743.779 1081.49L808.816 1146.52L743.779 1211.56L678.742 1146.52L743.779 1081.49Z" fill="#ffffff" fill-rule="nonzero" opacity="1" stroke="#263c53" stroke-linecap="butt" stroke-linejoin="round" stroke-width="12" vectornator:layerName="Rectangle 90"/>
<path d="M873.852 1211.56L938.889 1276.6L873.852 1341.63L808.816 1276.6L873.852 1211.56Z" fill="#ffffff" fill-rule="nonzero" opacity="1" stroke="#263c53" stroke-linecap="butt" stroke-linejoin="round" stroke-width="12" vectornator:layerName="Rectangle 91"/>
<path d="M938.889 1276.6L1003.93 1341.63L938.889 1406.67L873.852 1341.63L938.889 1276.6Z" fill="#ffffff" fill-rule="nonzero" opacity="1" stroke="#263c53" stroke-linecap="butt" stroke-linejoin="round" stroke-width="12" vectornator:layerName="Rectangle 92"/>
<path d="M1003.93 1341.63L1068.96 1406.67L1003.93 1471.71L938.889 1406.67L1003.93 1341.63Z" fill="#ffffff" fill-rule="nonzero" opacity="1" stroke="#263c53" stroke-linecap="butt" stroke-linejoin="round" stroke-width="12" vectornator:layerName="Rectangle 93"/>
<path d="M1068.96 1406.67L1134 1471.71L1068.96 1536.75L1003.93 1471.71L1068.96 1406.67Z" fill="#ffffff" fill-rule="nonzero" opacity="1" stroke="#263c53" stroke-linecap="butt" stroke-linejoin="round" stroke-width="12" vectornator:layerName="Rectangle 94"/>
<path d="M1134 1471.71L1199.04 1536.75L1134 1601.78L1068.96 1536.75L1134 1471.71Z" fill="#ffffff" fill-rule="nonzero" opacity="1" stroke="#263c53" stroke-linecap="butt" stroke-linejoin="round" stroke-width="12" vectornator:layerName="Rectangle 95"/>
<path d="M1199.04 1406.67L1264.07 1471.71L1199.04 1536.75L1134 1471.71L1199.04 1406.67Z" fill="#ffffff" fill-rule="nonzero" opacity="1" stroke="#263c53" stroke-linecap="butt" stroke-linejoin="round" stroke-width="12" vectornator:layerName="Rectangle 96"/>
<path d="M1199.04 1406.67L1264.07 1471.71L1199.04 1536.75L1134 1471.71L1199.04 1406.67Z" fill="#ffffff" fill-rule="nonzero" opacity="1" stroke="#263c53" stroke-linecap="butt" stroke-linejoin="round" stroke-width="12" vectornator:layerName="Rectangle 97"/>
<path d="M1264.07 1341.63L1329.11 1406.67L1264.07 1471.71L1199.04 1406.67L1264.07 1341.63Z" fill="#ffffff" fill-rule="nonzero" opacity="1" stroke="#263c53" stroke-linecap="butt" stroke-linejoin="round" stroke-width="12" vectornator:layerName="Rectangle 98"/>
<path d="M1329.11 1276.6L1394.15 1341.63L1329.11 1406.67L1264.07 1341.63L1329.11 1276.6Z" fill="#ffffff" fill-rule="nonzero" opacity="1" stroke="#263c53" stroke-linecap="butt" stroke-linejoin="round" stroke-width="12" vectornator:layerName="Rectangle 99"/>
<path d="M1394.15 1211.56L1459.18 1276.6L1394.15 1341.63L1329.11 1276.6L1394.15 1211.56Z" fill="#ffffff" fill-rule="nonzero" opacity="1" stroke="#263c53" stroke-linecap="butt" stroke-linejoin="round" stroke-width="12" vectornator:layerName="Rectangle 100"/>
<path d="M1459.18 1146.52L1524.22 1211.56L1459.18 1276.6L1394.15 1211.56L1459.18 1146.52Z" fill="#ffffff" fill-rule="nonzero" opacity="1" stroke="#263c53" stroke-linecap="butt" stroke-linejoin="round" stroke-width="12" vectornator:layerName="Rectangle 101"/>
<path d="M1524.22 1081.49L1589.26 1146.52L1524.22 1211.56L1459.18 1146.52L1524.22 1081.49Z" fill="#ffffff" fill-rule="nonzero" opacity="1" stroke="#263c53" stroke-linecap="butt" stroke-linejoin="round" stroke-width="12" vectornator:layerName="Rectangle 102"/>
<path d="M1589.26 1016.45L1654.3 1081.49L1589.26 1146.52L1524.22 1081.49L1589.26 1016.45Z" fill="#ffffff" fill-rule="nonzero" opacity="1" stroke="#263c53" stroke-linecap="butt" stroke-linejoin="round" stroke-width="12" vectornator:layerName="Rectangle 103"/>
<path d="M1654.3 951.414L1719.33 1016.45L1654.3 1081.49L1589.26 1016.45L1654.3 951.414Z" fill="#ffffff" fill-rule="nonzero" opacity="1" stroke="#263c53" stroke-linecap="butt" stroke-linejoin="round" stroke-width="12" vectornator:layerName="Rectangle 104"/>
<path d="M1719.33 886.377L1784.37 951.414L1719.33 1016.45L1654.3 951.414L1719.33 886.377Z" fill="#ffffff" fill-rule="nonzero" opacity="1" stroke="#263c53" stroke-linecap="butt" stroke-linejoin="round" stroke-width="12" vectornator:layerName="Rectangle 105"/>
<path d="M743.779 561.192L808.816 626.229L743.779 691.266L678.742 626.229L743.779 561.192Z" fill="#ffffff" fill-rule="nonzero" opacity="1" stroke="#263c53" stroke-linecap="butt" stroke-linejoin="round" stroke-width="12" vectornator:layerName="Rectangle 78"/>
<path d="M678.742 626.229L743.779 691.266L678.742 756.303L613.705 691.266L678.742 626.229Z" fill="#ffffff" fill-rule="nonzero" opacity="1" stroke="#263c53" stroke-linecap="butt" stroke-linejoin="round" stroke-width="12" vectornator:layerName="Rectangle 79"/>
<path d="M613.705 691.266L678.742 756.303L613.705 821.34L548.668 756.303L613.705 691.266Z" fill="#ffffff" fill-rule="nonzero" opacity="1" stroke="#263c53" stroke-linecap="butt" stroke-linejoin="round" stroke-width="12" vectornator:layerName="Rectangle 80"/>
<path d="M743.779 691.266L808.816 756.303L743.779 821.34L678.742 756.303L743.779 691.266Z" fill="#ffffff" fill-rule="nonzero" opacity="1" stroke="#263c53" stroke-linecap="butt" stroke-linejoin="round" stroke-width="12" vectornator:layerName="Rectangle 53"/>
</g>
</g>
</svg>
