<?xml version="1.0" encoding="UTF-8" standalone="no"?>
<!DOCTYPE svg PUBLIC "-//W3C//DTD SVG 1.1//EN" "http://www.w3.org/Graphics/SVG/1.1/DTD/svg11.dtd">
<!-- Created with Vectornator (http://vectornator.io/) -->
<svg height="100%" stroke-miterlimit="10" style="fill-rule:nonzero;clip-rule:evenodd;stroke-linecap:round;stroke-linejoin:round;" version="1.1" viewBox="0 0 2268 2268" width="100%" xml:space="preserve" xmlns="http://www.w3.org/2000/svg" xmlns:vectornator="http://vectornator.io" xmlns:xlink="http://www.w3.org/1999/xlink">
<defs/>
<clipPath id="ArtboardFrame">
<rect height="2268" width="2268" x="0" y="0"/>
</clipPath>
<g clip-path="url(#ArtboardFrame)" id="Layer-2" vectornator:layerName="Layer 2">
<path d="M696.843 219.393L1.13687e-13 916.236L1132.37 2048.61L1134 2046.98L1135.63 2048.61L2268 916.236L1571.16 219.393L1134 656.55L696.843 219.393Z" fill="#3981b6" fill-opacity="0.897294" fill-rule="nonzero" opacity="1" stroke="none" vectornator:layerName="Curve 1"/>
<g opacity="1" vectornator:layerName="Group 1">
<path d="M696.556 220.135C696.965 219.725 697.629 219.725 698.039 220.135L838.306 360.401C838.715 360.811 838.715 361.475 838.306 361.885L698.039 502.151C697.629 502.561 696.965 502.561 696.556 502.151L556.289 361.885C555.879 361.475 555.879 360.811 556.289 360.401L696.556 220.135Z" fill="#30658b" fill-rule="nonzero" opacity="1" stroke="#ffffff" stroke-linecap="butt" stroke-linejoin="round" stroke-width="1" vectornator:layerName="Rectangle 9"/>
<path d="M554.806 361.885C555.215 361.475 555.879 361.475 556.289 361.885L696.556 502.151C696.965 502.561 696.965 503.225 696.556 503.635L556.289 643.901C555.879 644.311 555.215 644.311 554.806 643.901L414.539 503.635C414.129 503.225 414.129 502.561 414.539 502.151L554.806 361.885Z" fill="#30658b" fill-rule="nonzero" opacity="1" stroke="#ffffff" stroke-linecap="butt" stroke-linejoin="round" stroke-width="1" vectornator:layerName="Rectangle 11"/>
<path d="M838.306 361.885C838.715 361.475 839.379 361.475 839.789 361.885L980.056 502.151C980.465 502.561 980.465 503.225 980.056 503.635L839.789 643.901C839.379 644.311 838.715 644.311 838.306 643.901L698.039 503.635C697.629 503.225 697.629 502.561 698.039 502.151L838.306 361.885Z" fill="#30658b" fill-rule="nonzero" opacity="1" stroke="#ffffff" stroke-linecap="butt" stroke-linejoin="round" stroke-width="1" vectornator:layerName="Rectangle 10"/>
</g>
<g opacity="1" vectornator:layerName="Group 2">
<path d="M1570.2 220.135C1570.61 219.725 1571.27 219.725 1571.68 220.135L1711.95 360.401C1712.36 360.811 1712.36 361.475 1711.95 361.885L1571.68 502.151C1571.27 502.561 1570.61 502.561 1570.2 502.151L1429.93 361.885C1429.52 361.475 1429.52 360.811 1429.93 360.401L1570.2 220.135Z" fill="#30658b" fill-rule="nonzero" opacity="1" stroke="#ffffff" stroke-linecap="butt" stroke-linejoin="round" stroke-width="1" vectornator:layerName="Rectangle 9"/>
<path d="M1428.45 361.885C1428.86 361.475 1429.52 361.475 1429.93 361.885L1570.2 502.151C1570.61 502.561 1570.61 503.225 1570.2 503.635L1429.93 643.901C1429.52 644.311 1428.86 644.311 1428.45 643.901L1288.18 503.635C1287.77 503.225 1287.77 502.561 1288.18 502.151L1428.45 361.885Z" fill="#30658b" fill-rule="nonzero" opacity="1" stroke="#ffffff" stroke-linecap="butt" stroke-linejoin="round" stroke-width="1" vectornator:layerName="Rectangle 11"/>
<path d="M1711.95 361.885C1712.36 361.475 1713.02 361.475 1713.43 361.885L1853.7 502.151C1854.11 502.561 1854.11 503.225 1853.7 503.635L1713.43 643.901C1713.02 644.311 1712.36 644.311 1711.95 643.901L1571.68 503.635C1571.27 503.225 1571.27 502.561 1571.68 502.151L1711.95 361.885Z" fill="#30658b" fill-rule="nonzero" opacity="1" stroke="#ffffff" stroke-linecap="butt" stroke-linejoin="round" stroke-width="1" vectornator:layerName="Rectangle 10"/>
</g>
<g opacity="1" vectornator:layerName="Group 5">
<path d="M1134.74 2047.87C1134.33 2048.27 1133.67 2048.27 1133.26 2047.87L992.992 1907.6C992.582 1907.19 992.582 1906.52 992.992 1906.12L1133.26 1765.85C1133.67 1765.44 1134.33 1765.44 1134.74 1765.85L1275.01 1906.12C1275.42 1906.52 1275.42 1907.19 1275.01 1907.6L1134.74 2047.87Z" fill="#30658b" fill-rule="nonzero" opacity="1" stroke="#ffffff" stroke-linecap="butt" stroke-linejoin="round" stroke-width="1" vectornator:layerName="Rectangle 9"/>
<path d="M1276.49 1906.12C1276.08 1906.52 1275.42 1906.52 1275.01 1906.12L1134.74 1765.85C1134.33 1765.44 1134.33 1764.77 1134.74 1764.37L1275.01 1624.1C1275.42 1623.69 1276.08 1623.69 1276.49 1624.1L1416.76 1764.37C1417.17 1764.77 1417.17 1765.44 1416.76 1765.85L1276.49 1906.12Z" fill="#30658b" fill-rule="nonzero" opacity="1" stroke="#ffffff" stroke-linecap="butt" stroke-linejoin="round" stroke-width="1" vectornator:layerName="Rectangle 11"/>
<path d="M992.992 1906.12C992.582 1906.52 991.918 1906.52 991.508 1906.12L851.242 1765.85C850.832 1765.44 850.832 1764.77 851.242 1764.37L991.508 1624.1C991.918 1623.69 992.582 1623.69 992.992 1624.1L1133.26 1764.37C1133.67 1764.77 1133.67 1765.44 1133.26 1765.85L992.992 1906.12Z" fill="#30658b" fill-rule="nonzero" opacity="1" stroke="#ffffff" stroke-linecap="butt" stroke-linejoin="round" stroke-width="1" vectornator:layerName="Rectangle 10"/>
</g>
<g opacity="1" vectornator:layerName="Group 3">
<path d="M2267.26 915.942C2267.67 916.352 2267.67 917.016 2267.26 917.426L2126.99 1057.69C2126.58 1058.1 2125.92 1058.1 2125.51 1057.69L1985.24 917.426C1984.83 917.016 1984.83 916.352 1985.24 915.942L2125.51 775.676C2125.92 775.266 2126.58 775.266 2126.99 775.676L2267.26 915.942Z" fill="#30658b" fill-rule="nonzero" opacity="1" stroke="#ffffff" stroke-linecap="butt" stroke-linejoin="round" stroke-width="1" vectornator:layerName="Rectangle 9"/>
<path d="M2125.51 774.192C2125.92 774.602 2125.92 775.266 2125.51 775.676L1985.24 915.942C1984.83 916.352 1984.17 916.352 1983.76 915.942L1843.49 775.676C1843.08 775.266 1843.08 774.602 1843.49 774.192L1983.76 633.926C1984.17 633.516 1984.83 633.516 1985.24 633.926L2125.51 774.192Z" fill="#30658b" fill-rule="nonzero" opacity="1" stroke="#ffffff" stroke-linecap="butt" stroke-linejoin="round" stroke-width="1" vectornator:layerName="Rectangle 11"/>
<path d="M2125.51 1057.69C2125.92 1058.1 2125.92 1058.77 2125.51 1059.18L1985.24 1199.44C1984.83 1199.85 1984.17 1199.85 1983.76 1199.44L1843.49 1059.18C1843.08 1058.77 1843.08 1058.1 1843.49 1057.69L1983.76 917.426C1984.17 917.016 1984.83 917.016 1985.24 917.426L2125.51 1057.69Z" fill="#30658b" fill-rule="nonzero" opacity="1" stroke="#ffffff" stroke-linecap="butt" stroke-linejoin="round" stroke-width="1" vectornator:layerName="Rectangle 10"/>
</g>
<g opacity="1" vectornator:layerName="Group 4">
<path d="M0.741782 917.426C0.332107 917.016 0.332107 916.352 0.741782 915.942L141.008 775.676C141.418 775.266 142.082 775.266 142.492 775.676L282.758 915.942C283.168 916.352 283.168 917.016 282.758 917.426L142.492 1057.69C142.082 1058.1 141.418 1058.1 141.008 1057.69L0.741782 917.426Z" fill="#30658b" fill-rule="nonzero" opacity="1" stroke="#ffffff" stroke-linecap="butt" stroke-linejoin="round" stroke-width="1" vectornator:layerName="Rectangle 9"/>
<path d="M142.492 1059.18C142.082 1058.77 142.082 1058.1 142.492 1057.69L282.758 917.426C283.168 917.016 283.832 917.016 284.242 917.426L424.508 1057.69C424.918 1058.1 424.918 1058.77 424.508 1059.18L284.242 1199.44C283.832 1199.85 283.168 1199.85 282.758 1199.44L142.492 1059.18Z" fill="#30658b" fill-rule="nonzero" opacity="1" stroke="#ffffff" stroke-linecap="butt" stroke-linejoin="round" stroke-width="1" vectornator:layerName="Rectangle 11"/>
<path d="M142.492 775.676C142.082 775.266 142.082 774.602 142.492 774.192L282.758 633.926C283.168 633.516 283.832 633.516 284.242 633.926L424.508 774.192C424.918 774.602 424.918 775.266 424.508 775.676L284.242 915.942C283.832 916.352 283.168 916.352 282.758 915.942L142.492 775.676Z" fill="#30658b" fill-rule="nonzero" opacity="1" stroke="#ffffff" stroke-linecap="butt" stroke-linejoin="round" stroke-width="1" vectornator:layerName="Rectangle 10"/>
</g>
</g>
</svg>
