<?xml version="1.0" encoding="UTF-8" standalone="no"?>
<!DOCTYPE svg PUBLIC "-//W3C//DTD SVG 1.1//EN" "http://www.w3.org/Graphics/SVG/1.1/DTD/svg11.dtd">
<!-- Created with Vectornator (http://vectornator.io/) -->
<svg height="100%" stroke-miterlimit="10" style="fill-rule:nonzero;clip-rule:evenodd;stroke-linecap:round;stroke-linejoin:round;" version="1.1" viewBox="0 0 2268 2268" width="100%" xml:space="preserve" xmlns="http://www.w3.org/2000/svg" xmlns:vectornator="http://vectornator.io" xmlns:xlink="http://www.w3.org/1999/xlink">
<defs/>
<g id="Layer-1" vectornator:layerName="Layer 1">
<g opacity="1" vectornator:layerName="Group 1">
<path d="M546.898 253.347L449.048 351.197L351.197 449.048L253.347 546.898L155.496 644.748L253.347 742.599L155.496 840.449L253.347 938.299L155.496 1036.15L253.347 1134L351.197 1231.85L449.048 1329.7L546.898 1427.55L644.748 1525.4L742.599 1623.25L840.449 1721.1L938.299 1818.95L1036.15 1916.8L1134 2014.65L1231.85 1916.8L1329.7 1818.95L1427.55 1721.1L1525.4 1623.25L1623.25 1525.4L1721.1 1427.55L1818.95 1329.7L1916.8 1231.85L2014.65 1134L2112.5 1036.15L2014.65 938.299L2112.5 840.449L2014.65 742.599L2112.5 644.748L2014.65 546.898L1916.8 449.048L1818.95 351.197L1721.1 253.347L1623.25 351.197L1525.4 253.347L1427.55 351.197L1329.7 449.048L1231.85 546.898L1134 644.748L1036.15 546.898L938.299 449.048L840.449 351.197L742.599 253.347L644.748 351.197L546.898 253.347Z" fill="none" opacity="1" stroke="#000000" stroke-linecap="butt" stroke-linejoin="round" stroke-width="150" vectornator:layerName="Curve 1"/>
</g>
</g>
</svg>
